<svg width="14" height="13" viewBox="0 0 14 13" fill="none" xmlns="http://www.w3.org/2000/svg">
<path d="M10.65 0.700256H2.85C1.41406 0.700256 0.25 1.77477 0.25 3.10026V10.3003C0.25 11.6257 1.41406 12.7003 2.85 12.7003H10.65C12.0859 12.7003 13.25 11.6257 13.25 10.3003V3.10026C13.25 1.77477 12.0859 0.700256 10.65 0.700256Z" fill="white"/>
<path d="M2.8501 5.20023C2.86025 4.9471 2.95674 4.73617 3.13955 4.56742C3.32236 4.39867 3.55088 4.3096 3.8251 4.30023H9.6751C9.94933 4.3096 10.1778 4.39867 10.3607 4.56742C10.5434 4.73617 10.64 4.9471 10.6501 5.20023V8.80023C10.64 9.05337 10.5434 9.26427 10.3607 9.43305C10.1778 9.60177 9.94933 9.69087 9.6751 9.70023H3.8251C3.55088 9.69087 3.32236 9.60177 3.13955 9.43305C2.95674 9.26427 2.86025 9.05337 2.8501 8.80023V5.20023ZM3.58135 5.20023V5.5096L6.2169 7.50651C6.3794 7.61895 6.55713 7.67523 6.7501 7.67523C6.94308 7.67523 7.12586 7.61895 7.29857 7.50651L9.91885 5.5096V5.18617C9.90871 5.05492 9.82746 4.97992 9.6751 4.96117H3.8251C3.67275 4.97992 3.5915 5.05492 3.58135 5.18617V5.20023ZM3.58135 6.38148V8.80023C3.5915 8.94087 3.67275 9.01587 3.8251 9.02523H9.6751C9.82746 9.01587 9.90871 8.94087 9.91885 8.80023V6.38148L7.75558 8.02677C7.45086 8.24241 7.11572 8.35023 6.7501 8.35023C6.38447 8.35023 6.04424 8.24241 5.7294 8.02677L3.58135 6.38148Z" fill="url(#paint0_linear_73_639)"/>
<defs>
<linearGradient id="paint0_linear_73_639" x1="6.75007" y1="9.70017" x2="6.75007" y2="3.69996" gradientUnits="userSpaceOnUse">
<stop stop-color="#21171F"/>
<stop offset="1" stop-color="#3E4049"/>
</linearGradient>
</defs>
</svg>
