<svg width="69" height="28" viewBox="0 0 69 28" fill="none" xmlns="http://www.w3.org/2000/svg">
<g clip-path="url(#clip0_73_504)">
<path fill-rule="evenodd" clip-rule="evenodd" d="M12.0242 11.9402L15.6255 12.3242C15.8158 12.3441 15.9539 12.5117 15.9336 12.6984C15.9249 12.779 15.8875 12.8502 15.8332 12.9035C15.6578 13.0772 15.4878 13.2419 15.3236 13.4006C14.2263 14.4623 13.3994 15.2628 13.3028 16.6573C13.2514 17.3993 13.6714 18.0851 14.1143 18.8075C14.7803 19.8948 15.492 21.0566 15.0209 22.7362C14.7923 23.5515 14.3884 24.2898 13.8651 24.9687C13.3509 25.6358 12.7172 26.2492 12.0197 26.8248C11.9048 26.9192 11.746 26.9286 11.6237 26.859L9.72852 25.7859L10.212 25.275L11.7589 26.1512C12.3423 25.6545 12.8727 25.1273 13.3107 24.559C13.7854 23.9427 14.15 23.2801 14.3528 22.5585C14.7455 21.1583 14.1122 20.1247 13.5196 19.1574C13.0191 18.341 12.5443 17.5656 12.6107 16.6129C12.7247 14.965 13.6292 14.0868 14.8297 12.925L11.5312 12.5732L12.0242 11.9402Z" fill="#F48C0D"/>
<path fill-rule="evenodd" clip-rule="evenodd" d="M3.1652 10.2448L9.93884 10.9672C8.54216 12.3519 7.42747 13.1992 7.30679 14.9395C7.16951 16.9184 9.79286 18.258 9.03689 20.9517C8.60559 22.4894 7.50126 23.7524 6.14728 24.8699L0.329102 21.5749C1.36045 20.9159 2.39346 19.7566 2.53943 18.5143C2.74346 16.7801 0.799781 15.1017 1.28788 13.423C1.61839 12.2839 2.23919 11.112 3.1652 10.2448Z" fill="#F48C0D"/>
<path fill-rule="evenodd" clip-rule="evenodd" d="M6.83751 8.55736L14.5231 9.37255C14.7134 9.39249 14.8515 9.5601 14.8312 9.7468C14.8212 9.83914 14.7743 9.91889 14.7067 9.97338L14.0897 10.4847C12.433 11.8536 11.4207 12.6395 10.7721 14.6209C10.4134 15.7168 10.7713 16.7081 11.1719 17.8166C11.6479 19.1337 12.1792 20.6047 11.7753 22.6463C11.5625 23.7203 11.0682 24.6677 10.3736 25.5386C9.68933 26.3957 8.81597 27.1751 7.82902 27.9284C7.70545 28.0224 7.53791 28.022 7.41601 27.9382L1.62352 24.0318C1.46013 23.9342 1.4087 23.7247 1.50823 23.5645C1.5385 23.516 1.57914 23.4774 1.62559 23.4502C2.37204 23.001 3.34077 22.1025 3.94166 21.3707C4.45091 20.7504 4.83948 20.06 4.99167 19.3547C5.20483 18.3678 4.82082 17.3463 4.44055 16.3339C3.97318 15.0903 3.50997 13.8578 4.01216 12.5658C4.32816 11.7539 4.75364 10.9285 5.28487 10.1577C5.76923 9.45476 5.90981 9.20903 6.57208 8.64074C6.64839 8.57528 6.74498 8.54801 6.83751 8.55736ZM13.646 9.96402L6.91626 9.25014C6.35103 9.7533 6.2876 9.91928 5.86171 10.538C5.36117 11.2645 4.96015 12.0423 4.6624 12.8079C4.25269 13.8618 4.67112 14.9756 5.09327 16.0992C5.50797 17.2028 5.92642 18.3161 5.67177 19.4954C5.49553 20.3122 5.05595 21.0986 4.48284 21.7966C3.95494 22.4401 3.10688 23.2781 2.45166 23.7308L7.59097 27.2455C8.46349 26.5661 9.23027 25.8693 9.82828 25.1204C10.4573 24.3317 10.904 23.479 11.0944 22.5186C11.463 20.6572 10.9645 19.2786 10.5183 18.0436C10.0766 16.822 9.6823 15.7294 10.1128 14.4134C10.8215 12.2482 11.9059 11.4028 13.6447 9.96649L13.646 9.96402Z" fill="#F48C0D"/>
<path fill-rule="evenodd" clip-rule="evenodd" d="M2.98172 11.4101C2.86768 11.3975 2.78557 11.2958 2.79843 11.1839C2.81128 11.0721 2.91495 10.9916 3.029 11.0042L8.21683 11.5903C8.33087 11.6029 8.41297 11.7046 8.40015 11.8165C8.38728 11.9284 8.2836 12.0089 8.16956 11.9963L2.98172 11.4101ZM2.2813 13.728C2.16726 13.7154 2.08515 13.6137 2.09801 13.5018C2.11086 13.3899 2.21454 13.3094 2.32858 13.322L5.1315 13.6389C5.24555 13.6515 5.32766 13.7532 5.3148 13.865C5.30194 13.9769 5.19827 14.0575 5.08423 14.0449L2.2813 13.728ZM2.37336 12.5438C2.25932 12.5312 2.17721 12.4295 2.19007 12.3176C2.20292 12.2058 2.3066 12.1252 2.42064 12.1378L6.34739 12.5817C6.46143 12.5943 6.54353 12.696 6.53071 12.8078C6.51783 12.9197 6.41416 13.0002 6.30012 12.9876L2.37336 12.5438Z" fill="#F48C0D"/>
<path fill-rule="evenodd" clip-rule="evenodd" d="M3.4368 18.888C3.27465 19.8639 2.42204 20.7983 1.79834 21.3792C2.19354 21.6294 2.47968 21.8104 2.87489 22.061C3.80132 21.3959 4.6191 20.518 4.63071 19.3152L3.4368 18.888ZM4.68711 17.8052L5.9702 18.0452C6.12944 18.6294 6.30942 19.1504 6.33551 19.7459C6.39152 21.0338 5.50323 22.3331 4.5316 23.0303C4.13639 22.7797 3.74077 22.5296 3.34557 22.279C3.99623 21.6729 4.89611 20.6824 5.00145 19.6609C5.0678 19.0129 4.90607 18.4149 4.68711 17.8052ZM5.76864 16.5051C5.93743 17.8865 6.99778 18.6724 6.66436 20.4261C6.47279 21.4349 5.65045 22.4458 4.99979 23.0519C5.39499 23.3024 5.66372 23.4725 6.05894 23.7227C7.03095 23.0255 7.61157 22.041 7.9864 20.8865C8.56864 19.0935 7.21884 18.0293 6.93062 16.7199C6.49391 16.6393 6.2053 16.5856 5.76864 16.5051Z" fill="#F48C0D"/>
<path d="M10.083 7.77777C12.1301 7.77777 13.7896 6.03666 13.7896 3.88889C13.7896 1.74111 12.1301 0 10.083 0C8.03595 0 6.37646 1.74111 6.37646 3.88889C6.37646 6.03666 8.03595 7.77777 10.083 7.77777Z" fill="#F48C0D"/>
<path d="M13.1766 3.5C13.1766 5.19788 11.7948 6.58 10.0832 6.58C8.37154 6.58 6.98975 5.19788 6.98975 3.5C6.98975 1.80211 8.37154 0.419998 10.0832 0.419998C11.7948 0.419998 13.1766 1.80211 13.1766 3.5Z" fill="#F48C0D" stroke="#F48C0D" stroke-width="1.5"/>
<path d="M18.4727 25.2V13.1018H22.1023V14.8758C22.511 14.2188 23.0588 13.7178 23.7454 13.3728C24.4321 13.0278 25.2006 12.8554 26.0508 12.8554C27.4732 12.8554 28.5359 13.2742 29.239 14.112C29.942 14.9334 30.2935 16.2064 30.2935 17.9312V25.2H26.5903V18.1037C26.5903 17.2659 26.435 16.6663 26.1243 16.305C25.8137 15.9271 25.3559 15.7382 24.751 15.7382C23.9662 15.7382 23.3367 15.9846 22.8626 16.4774C22.4048 16.9702 22.1759 17.6273 22.1759 18.4486V25.2H18.4727ZM36.4944 25.2L31.2461 13.1018H35.1455L38.1621 20.7894L41.2767 13.1018H44.9308L39.609 25.2H36.4944ZM49.8704 25.471C48.9712 25.471 48.1782 25.2986 47.4915 24.9536C46.8049 24.6086 46.2572 24.1405 45.8484 23.5491C45.456 22.9578 45.2598 22.2925 45.2598 21.5533C45.2598 20.6826 45.4887 19.9846 45.9465 19.4589C46.4043 18.9332 47.1482 18.5636 48.1782 18.3501C49.2083 18.1201 50.5735 18.0051 52.2738 18.0051H53.1567V17.5862C53.1567 16.8634 52.9932 16.3542 52.6662 16.0586C52.3393 15.7465 51.7833 15.5904 50.9986 15.5904C50.3446 15.5904 49.6497 15.6972 48.914 15.9107C48.1946 16.1078 47.4752 16.4118 46.7558 16.8224L45.7503 14.3338C46.1754 14.0545 46.6904 13.7999 47.2953 13.5699C47.9167 13.3399 48.5625 13.1674 49.2328 13.0525C49.9031 12.921 50.5408 12.8554 51.1457 12.8554C53.0096 12.8554 54.3993 13.2825 55.3149 14.1366C56.2305 14.9744 56.6881 16.2803 56.6881 18.0544V25.2H53.2303V23.3766C52.9851 24.0173 52.5681 24.5265 51.9795 24.9043C51.4073 25.2822 50.7043 25.471 49.8704 25.471ZM50.7043 22.9824C51.391 22.9824 51.9714 22.7442 52.4455 22.2678C52.9197 21.7914 53.1567 21.1754 53.1567 20.4198V19.927H52.2984C51.0395 19.927 50.1484 20.042 49.6252 20.272C49.102 20.4855 48.8404 20.8634 48.8404 21.4054C48.8404 21.8654 48.9957 22.2432 49.3064 22.5389C49.6334 22.8346 50.0993 22.9824 50.7043 22.9824ZM59.451 25.2V13.1018H63.0807V15.1962C63.6525 13.7834 64.8787 13.0032 66.7593 12.8554L67.8384 12.7814L68.0591 15.9107L65.9746 16.1325C64.143 16.3132 63.2278 17.2495 63.2278 18.9414V25.2H59.451Z" fill="white"/>
</g>
<defs>
<clipPath id="clip0_73_504">
<rect width="68" height="28" fill="white" transform="translate(0.329102)"/>
</clipPath>
</defs>
</svg>
